<?xml version="1.0" encoding="UTF-8" standalone="no"?>
<!-- Created with Inkscape (http://www.inkscape.org/) -->

<svg
   xmlns:dc="http://purl.org/dc/elements/1.1/"
   xmlns:cc="http://creativecommons.org/ns#"
   xmlns:rdf="http://www.w3.org/1999/02/22-rdf-syntax-ns#"
   xmlns:svg="http://www.w3.org/2000/svg"
   xmlns="http://www.w3.org/2000/svg"
   xmlns:sodipodi="http://sodipodi.sourceforge.net/DTD/sodipodi-0.dtd"
   xmlns:inkscape="http://www.inkscape.org/namespaces/inkscape"
   width="18mm"
   height="18mm"
   viewBox="0 0 63.779528 63.779527"
   id="svg4922"
   version="1.1"
   inkscape:version="0.91 r13725"
   sodipodi:docname="doctor.svg">
  <defs
     id="defs4924" />
  <sodipodi:namedview
     id="base"
     pagecolor="#ffffff"
     bordercolor="#666666"
     borderopacity="1.0"
     inkscape:pageopacity="0.0"
     inkscape:pageshadow="2"
     inkscape:zoom="11.2"
     inkscape:cx="22.67975"
     inkscape:cy="28.917839"
     inkscape:document-units="px"
     inkscape:current-layer="layer1"
     showgrid="false"
     inkscape:window-width="2495"
     inkscape:window-height="1416"
     inkscape:window-x="65"
     inkscape:window-y="24"
     inkscape:window-maximized="1" />
  <metadata
     id="metadata4927">
    <rdf:RDF>
      <cc:Work
         rdf:about="">
        <dc:format>image/svg+xml</dc:format>
        <dc:type
           rdf:resource="http://purl.org/dc/dcmitype/StillImage" />
        <dc:title></dc:title>
      </cc:Work>
    </rdf:RDF>
  </metadata>
  <g
     inkscape:label="Layer 1"
     inkscape:groupmode="layer"
     id="layer1"
     transform="translate(0,-988.58268)">
    <g
       id="g4890"
       transform="matrix(0.13056333,0,0,-0.11080408,-473.1189,1328.6344)">
      <path
         inkscape:connector-curvature="0"
         id="path90"
         style="fill:#496ea0;fill-opacity:1;fill-rule:nonzero;stroke:none"
         d="m 3673.4,2696.19 c 2.28,8.5 12.4,17.93 21.58,20.18 l 73.65,19 75.16,-51.14 25.45,25.46 25.43,-25.46 78.04,53.11 26.72,-4.2 42.74,-16.75 c 9.39,-2.31 19.33,-11.57 21.62,-19.81 l 34.14,-188.14 -458.65,0 34.12,187.75 z m 124.94,46.85 62.64,-28.14 -18.36,-18.37 -61.9,42.13 17.62,4.38 z m 23.73,26.63 2.15,11.03 c 9.78,-2.82 19.94,-4.7 30.31,-5.62 4.83,-0.66 9.75,-1.14 14.85,-1.28 3.37,0.12 6.73,0.51 10.11,0.88 l 2.46,0.22 1.33,0.13 c 10.18,0.87 20.14,2.66 29.77,5.36 l 2.09,-10.73 c 1.5,-7.67 6.99,-15.54 14.2,-21.05 l -60.1,-26.98 -60.92,27.34 c 7.01,5.47 12.32,13.17 13.75,20.7 z m -28.09,34.29 c -12.44,6.9 -19.59,24.63 -18.22,36.27 1.13,10.56 1.86,19.3 2.25,27.58 0.12,2.83 0.66,4.75 1.38,6.14 l 5.34,1.67 -0.51,1.62 0.88,0.03 c 2.69,0 6.11,-1 9.82,-2.86 45.24,-23.27 103.26,-23.25 148.42,-0.03 3.75,1.89 7.15,2.89 9.86,2.89 1.82,0 6.7,0 7.09,-9.49 0.39,-8.17 1.1,-16.93 2.25,-27.57 1.39,-11.86 -5.63,-29.24 -18.34,-36.31 -22.07,-13.11 -48.03,-20.03 -75.06,-20.03 -27.03,0 -52.97,6.92 -75.16,20.09 z m -25.48,64.28 c -0.1,-2.01 -0.2,-4.05 -0.34,-6.14 l -7.32,22.83 0,-31.7 c 0,-2.31 -1.88,-4.2 -4.38,-4.2 -2.32,0 -4.21,1.89 -4.21,4.2 l 0,67.02 c 0,2.72 3.06,4.55 5.64,3.8 0.96,-2.15 1.82,-4.38 2.89,-6.46 l 4.77,-9.34 8.2,-26.13 c -3.11,-3.16 -5,-7.84 -5.25,-13.88 z m 1.56,137.41 c 17.56,27.5 47.85,45.71 81.07,48.7 6.7,0.74 13.52,1.11 20.26,1.11 6.74,0 13.55,-0.37 20.35,-1.12 33.12,-2.98 63.42,-21.19 80.97,-48.69 12.64,-19.76 16.72,-41.17 10.84,-57.62 -1.54,-5.77 -3.45,-11.37 -5.7,-16.76 -20.19,40.69 -60.1,65.55 -106.46,65.55 -46.35,0 -86.25,-24.86 -106.47,-65.55 -2.24,5.43 -4.18,11.12 -5.8,17.14 -5.78,16.08 -1.68,37.47 10.94,57.24 z m 192.91,-122.26 c -5.53,4.23 -13.93,4.5 -23.95,-0.52 -42.56,-21.87 -97.14,-21.9 -139.8,0.02 -6.78,3.41 -12.85,4.34 -17.81,3.28 l -10.82,34.46 c 7.95,18.73 20.19,34.18 35.45,45.49 2.71,0.16 5.44,0.08 8.18,-0.43 l 16.39,-3.01 c 9.86,-1.82 19.88,-2.74 29.92,-2.74 l 8.61,0 8.61,0 c 10.04,0 20.06,0.92 29.95,2.74 l 16.38,3.01 c 4.63,0.86 9.28,0.67 13.69,-0.33 13.05,-9.92 23.85,-22.9 31.55,-38.4 l 0.37,-1.37 1.89,-8.23 1.45,1.4 0.33,-0.75 0.25,-0.69 -10.64,-33.93 z m 21.99,-30.16 c 0,-2.31 -1.89,-4.2 -4.39,-4.2 -2.31,0 -4.2,1.89 -4.2,4.2 l 0,31.7 -6.39,-19.96 c -0.06,1.07 -0.14,2.18 -0.19,3.23 -0.08,2.12 -0.38,4.07 -0.84,5.85 l 15.11,48.13 0.12,0.25 0.78,-2.18 0,-67.02 z m -44.84,-110.19 17.61,-4.38 -61.91,-42.13 -18.36,18.37 62.66,28.14 z m 132.95,-44.35 c -3.3,11.98 -15.88,23.81 -28.03,26.74 l -42.62,16.76 -54.04,8.59 -6.82,1.69 -1.03,0.37 -0.04,0.01 c -7.87,3.67 -14.61,11.51 -16.02,18.63 l -1.74,8.9 c 3.25,2.09 6.41,4.34 9.46,6.78 5.76,2.5 11.38,5.29 16.74,8.48 16.46,9.14 24.78,30.82 23.08,45.62 l -0.04,0.38 0.32,0.7 c 2.32,-1.77 5.25,-2.83 8.45,-2.83 7.58,0 13.73,6.15 13.73,13.72 l 0,67.02 c 0,4.79 -2.46,9 -6.23,11.45 1.68,4.44 3.17,8.95 4.4,13.48 6.75,18.84 2.3,43.37 -11.9,65.6 -19.14,29.96 -52.11,49.8 -88.06,53.03 -14.07,1.56 -28.6,1.55 -42.48,0.01 -36.06,-3.24 -69.03,-23.08 -88.17,-53.05 -14.2,-22.23 -18.63,-46.75 -11.99,-65.21 1.09,-4.05 2.44,-7.96 3.85,-11.84 -6.33,-1.21 -11.16,-6.79 -11.16,-13.47 l 0,-67.02 c 0,-7.57 6.16,-13.72 13.91,-13.72 3.11,0 6,1.05 8.3,2.81 0.39,-0.98 0.88,-1.9 1.29,-2.87 -0.9,-14.75 7.31,-35.04 23.01,-43.74 4.69,-2.78 9.59,-5.23 14.59,-7.49 3.44,-2.83 6.95,-5.5 10.64,-7.85 l -1.74,-8.91 c -1.34,-7.1 -8.02,-14.88 -15.87,-18.51 l -0.16,-0.08 -0.1,-0.05 c -1.01,-0.51 -2.21,-0.93 -3.65,-1.33 l -35.2,-8.72 0.43,-0.29 -63.67,-16.45 -1.74,-0.41 c -12.79,-3.13 -25.35,-14.97 -28.65,-27.34 l -36.25,-199.36 481.47,0 -36.27,199.77" />
      <path
         inkscape:connector-curvature="0"
         id="path92"
         style="fill:#496ea0;fill-opacity:1;fill-rule:nonzero;stroke:none"
         d="m 3815.37,2883.12 c 8.05,0 14.55,6.52 14.55,14.56 0,8.04 -6.5,14.56 -14.55,14.56 -8.05,0 -14.57,-6.52 -14.57,-14.56 0,-8.04 6.52,-14.56 14.57,-14.56" />
      <path
         inkscape:connector-curvature="0"
         id="path94"
         style="fill:#496ea0;fill-opacity:1;fill-rule:nonzero;stroke:none"
         d="m 3922.93,2883.12 c 8.03,0 14.55,6.52 14.55,14.56 0,8.04 -6.52,14.56 -14.55,14.56 -8.05,0 -14.57,-6.52 -14.57,-14.56 0,-8.04 6.52,-14.56 14.57,-14.56" />
      <path
         inkscape:connector-curvature="0"
         id="path96"
         style="fill:#496ea0;fill-opacity:1;fill-rule:nonzero;stroke:none"
         d="m 3981.31,2599.08 13.49,0 0,16.26 16.27,0 0,13.44 -16.27,0 0,16.27 -6.26,0 -7.23,0 0,-16.27 -16.19,0 0,-13.44 16.19,0 0,-16.26" />
    </g>
  </g>
</svg>
