<svg id="vector" xmlns="http://www.w3.org/2000/svg" width="45" height="45" viewBox="0 0 1.875 1.875"><path fill="#3d6889" d="M0,0.9375C0,0.41973 0.41973,-0 0.9375,-0 1.45527,-0 1.875,0.41973 1.875,0.9375 1.875,1.45526 1.45527,1.875 0.9375,1.875 0.41973,1.875 0,1.45526 0,0.9375ZM0.9375,0.13448c-0.4435,0 -0.80302,0.35952 -0.80302,0.80302 0,0.44349 0.35953,0.80303 0.80302,0.80303 0.44349,0 0.80302,-0.35954 0.80302,-0.80303 0,-0.44349 -0.35952,-0.80302 -0.80302,-0.80302zM1.04367,1.3622c0,0.05863 -0.04753,0.10617 -0.10617,0.10617 -0.05864,0 -0.10617,-0.04753 -0.10617,-0.10617 0,-0.05863 0.04753,-0.10617 0.10617,-0.10617 0.05863,0 0.10617,0.04754 0.10617,0.10617zM0.73226,0.76059c0,-0.09596 0.08282,-0.18756 0.20526,-0.18756 0.12244,0 0.20526,0.0916 0.20526,0.18756 0,0.06953 -0.03822,0.10505 -0.10412,0.14509 -0.00736,0.0045 -0.01584,0.0094 -0.02491,0.01467l-0.00001,0c-0.02593,0.01506 -0.0567,0.03293 -0.07983,0.05095 -0.03431,0.02673 -0.07424,0.06986 -0.07424,0.13611 0,0.043 0.03486,0.07786 0.07786,0.07786 0.0428,0 0.07754,-0.03454 0.07785,-0.07726l0.00008,-0.00012c0.00123,-0.0019 0.00487,-0.0065 0.01416,-0.01375 0.01437,-0.01119 0.03036,-0.02046 0.05168,-0.03282l0.00001,-0c0.01111,-0.0064 0.02368,-0.01372 0.0382,-0.02255 0.07565,-0.04596 0.17898,-0.12191 0.17898,-0.27816 0,-0.18715 -0.15782,-0.34327 -0.36096,-0.34327 -0.20314,0 -0.36097,0.15612 -0.36097,0.34327 0,0.043 0.03486,0.07786 0.07786,0.07786 0.043,0 0.07786,-0.03486 0.07786,-0.07786z" fill-rule="evenodd" id="path_0"/></svg>