<?xml version="1.0" encoding="UTF-8" standalone="no"?>
<!-- Created with Inkscape (http://www.inkscape.org/) -->

<svg
   xmlns:dc="http://purl.org/dc/elements/1.1/"
   xmlns:cc="http://creativecommons.org/ns#"
   xmlns:rdf="http://www.w3.org/1999/02/22-rdf-syntax-ns#"
   xmlns:svg="http://www.w3.org/2000/svg"
   xmlns="http://www.w3.org/2000/svg"
   xmlns:sodipodi="http://sodipodi.sourceforge.net/DTD/sodipodi-0.dtd"
   xmlns:inkscape="http://www.inkscape.org/namespaces/inkscape"
   width="33mm"
   height="35mm"
   viewBox="0 0 116.92913 124.01575"
   id="svg5908"
   version="1.1"
   inkscape:version="0.91 r13725"
   sodipodi:docname="network_yes.svg">
  <defs
     id="defs5910" />
  <sodipodi:namedview
     id="base"
     pagecolor="#ffffff"
     bordercolor="#666666"
     borderopacity="1.0"
     inkscape:pageopacity="0.0"
     inkscape:pageshadow="2"
     inkscape:zoom="2.8"
     inkscape:cx="85.097531"
     inkscape:cy="5.3160183"
     inkscape:document-units="px"
     inkscape:current-layer="g6747"
     showgrid="false"
     inkscape:window-width="1855"
     inkscape:window-height="1056"
     inkscape:window-x="65"
     inkscape:window-y="24"
     inkscape:window-maximized="1" />
  <metadata
     id="metadata5913">
    <rdf:RDF>
      <cc:Work
         rdf:about="">
        <dc:format>image/svg+xml</dc:format>
        <dc:type
           rdf:resource="http://purl.org/dc/dcmitype/StillImage" />
        <dc:title></dc:title>
      </cc:Work>
    </rdf:RDF>
  </metadata>
  <g
     inkscape:label="Layer 1"
     inkscape:groupmode="layer"
     id="layer1"
     transform="translate(0,-928.34645)">
    <g
       id="g6747"
       transform="matrix(0.99431378,0,0,1.06396,-96.186479,-197.56436)">
      <path
         inkscape:connector-curvature="0"
         id="path34"
         style="fill:#f4f4f4;fill-opacity:1;fill-rule:nonzero;stroke:none"
         d="m 141.22215,1123.7138 3.54346,0 0,-3.5454 -3.54346,0 0,3.5454 z" />
      <path
         inkscape:connector-curvature="0"
         id="path36"
         style="fill:#f4f4f4;fill-opacity:1;fill-rule:nonzero;stroke:none"
         d="m 141.22215,1129.6563 3.54346,0 0,-3.5449 -3.54346,0 0,3.5449 z" />
      <path
         inkscape:connector-curvature="0"
         id="path38"
         style="fill:#f4f4f4;fill-opacity:1;fill-rule:nonzero;stroke:none"
         d="m 141.22215,1153.4263 3.54346,0 0,-3.5449 -3.54346,0 0,3.5449 z" />
      <path
         inkscape:connector-curvature="0"
         id="path40"
         style="fill:#f4f4f4;fill-opacity:1;fill-rule:nonzero;stroke:none"
         d="m 141.22215,1159.3688 3.54346,0 0,-3.5449 -3.54346,0 0,3.5449 z" />
      <path
         inkscape:connector-curvature="0"
         id="path42"
         style="fill:#f4f4f4;fill-opacity:1;fill-rule:nonzero;stroke:none"
         d="m 141.22215,1165.3113 3.54346,0 0,-3.5449 -3.54346,0 0,3.5449 z" />
      <path
         inkscape:connector-curvature="0"
         id="path48"
         style="fill:#f4f4f4;fill-opacity:1;fill-rule:nonzero;stroke:none"
         d="m 146.8509,1147.4838 3.54493,0 0,-3.5449 -3.54493,0 0,3.5449 z" />
      <path
         inkscape:connector-curvature="0"
         id="path50"
         style="fill:#f4f4f4;fill-opacity:1;fill-rule:nonzero;stroke:none"
         d="m 146.8509,1153.4263 3.54493,0 0,-3.5449 -3.54493,0 0,3.5449 z" />
      <path
         inkscape:connector-curvature="0"
         id="path52"
         style="fill:#f4f4f4;fill-opacity:1;fill-rule:nonzero;stroke:none"
         d="m 146.8509,1159.3688 3.54493,0 0,-3.5449 -3.54493,0 0,3.5449 z" />
      <path
         inkscape:connector-curvature="0"
         id="path54"
         style="fill:#f4f4f4;fill-opacity:1;fill-rule:nonzero;stroke:none"
         d="m 146.8509,1165.3113 3.54493,0 0,-3.5449 -3.54493,0 0,3.5449 z" />
      <path
         inkscape:connector-curvature="0"
         id="path62"
         style="fill:#f4f4f4;fill-opacity:1;fill-rule:nonzero;stroke:none"
         d="m 152.4809,1123.7138 3.54541,0 0,-3.5454 -3.54541,0 0,3.5454 z" />
      <path
         inkscape:connector-curvature="0"
         id="path64"
         style="fill:#f4f4f4;fill-opacity:1;fill-rule:nonzero;stroke:none"
         d="m 152.4809,1129.6563 3.54541,0 0,-3.5449 -3.54541,0 0,3.5449 z" />
      <path
         inkscape:connector-curvature="0"
         id="path66"
         style="fill:#f4f4f4;fill-opacity:1;fill-rule:nonzero;stroke:none"
         d="m 152.4809,1135.5988 3.54541,0 0,-3.5449 -3.54541,0 0,3.5449 z" />
      <path
         inkscape:connector-curvature="0"
         id="path68"
         style="fill:#f4f4f4;fill-opacity:1;fill-rule:nonzero;stroke:none"
         d="m 152.4809,1141.54 3.54541,0 0,-3.5449 -3.54541,0 0,3.5449 z" />
      <path
         inkscape:connector-curvature="0"
         id="path70"
         style="fill:#f4f4f4;fill-opacity:1;fill-rule:nonzero;stroke:none"
         d="m 152.4809,1147.4838 3.54541,0 0,-3.5449 -3.54541,0 0,3.5449 z" />
      <path
         inkscape:connector-curvature="0"
         id="path72"
         style="fill:#f4f4f4;fill-opacity:1;fill-rule:nonzero;stroke:none"
         d="m 152.4809,1153.4263 3.54541,0 0,-3.5449 -3.54541,0 0,3.5449 z" />
      <path
         inkscape:connector-curvature="0"
         id="path74"
         style="fill:#f4f4f4;fill-opacity:1;fill-rule:nonzero;stroke:none"
         d="m 152.4809,1159.3688 3.54541,0 0,-3.5449 -3.54541,0 0,3.5449 z" />
      <path
         inkscape:connector-curvature="0"
         id="path76"
         style="fill:#f4f4f4;fill-opacity:1;fill-rule:nonzero;stroke:none"
         d="m 152.4809,1165.3113 3.54541,0 0,-3.5449 -3.54541,0 0,3.5449 z" />
      <path
         inkscape:connector-curvature="0"
         id="path84"
         style="fill:#f4f4f4;fill-opacity:1;fill-rule:nonzero;stroke:none"
         d="m 158.1109,1123.7138 3.54493,0 0,-3.5454 -3.54493,0 0,3.5454 z" />
      <path
         inkscape:connector-curvature="0"
         id="path86"
         style="fill:#f4f4f4;fill-opacity:1;fill-rule:nonzero;stroke:none"
         d="m 158.1109,1129.6563 3.54493,0 0,-3.5449 -3.54493,0 0,3.5449 z" />
      <path
         inkscape:connector-curvature="0"
         id="path88"
         style="fill:#f4f4f4;fill-opacity:1;fill-rule:nonzero;stroke:none"
         d="m 158.1109,1135.5988 3.54493,0 0,-3.5449 -3.54493,0 0,3.5449 z" />
      <path
         inkscape:connector-curvature="0"
         id="path90"
         style="fill:#f4f4f4;fill-opacity:1;fill-rule:nonzero;stroke:none"
         d="m 158.1109,1141.54 3.54493,0 0,-3.5449 -3.54493,0 0,3.5449 z" />
      <path
         inkscape:connector-curvature="0"
         id="path92"
         style="fill:#f4f4f4;fill-opacity:1;fill-rule:nonzero;stroke:none"
         d="m 158.1109,1147.4838 3.54493,0 0,-3.5449 -3.54493,0 0,3.5449 z" />
      <path
         inkscape:connector-curvature="0"
         id="path94"
         style="fill:#f4f4f4;fill-opacity:1;fill-rule:nonzero;stroke:none"
         d="m 158.1109,1153.4263 3.54493,0 0,-3.5449 -3.54493,0 0,3.5449 z" />
      <path
         inkscape:connector-curvature="0"
         id="path96"
         style="fill:#f4f4f4;fill-opacity:1;fill-rule:nonzero;stroke:none"
         d="m 158.1109,1159.3688 3.54493,0 0,-3.5449 -3.54493,0 0,3.5449 z" />
      <path
         inkscape:connector-curvature="0"
         id="path100"
         style="fill:#f4f4f4;fill-opacity:1;fill-rule:nonzero;stroke:none"
         d="m 163.7409,1123.7138 3.54395,0 0,-3.5454 -3.54395,0 0,3.5454 z" />
      <path
         inkscape:connector-curvature="0"
         id="path102"
         style="fill:#f4f4f4;fill-opacity:1;fill-rule:nonzero;stroke:none"
         d="m 163.7409,1129.6563 3.54395,0 0,-3.5449 -3.54395,0 0,3.5449 z" />
      <path
         inkscape:connector-curvature="0"
         id="path104"
         style="fill:#f4f4f4;fill-opacity:1;fill-rule:nonzero;stroke:none"
         d="m 163.7409,1135.5988 3.54395,0 0,-3.5449 -3.54395,0 0,3.5449 z" />
      <path
         inkscape:connector-curvature="0"
         id="path106"
         style="fill:#f4f4f4;fill-opacity:1;fill-rule:nonzero;stroke:none"
         d="m 163.7409,1141.54 3.54395,0 0,-3.5449 -3.54395,0 0,3.5449 z" />
      <path
         inkscape:connector-curvature="0"
         id="path108"
         style="fill:#f4f4f4;fill-opacity:1;fill-rule:nonzero;stroke:none"
         d="m 163.7409,1147.4838 3.54395,0 0,-3.5449 -3.54395,0 0,3.5449 z" />
      <path
         inkscape:connector-curvature="0"
         id="path110"
         style="fill:#f4f4f4;fill-opacity:1;fill-rule:nonzero;stroke:none"
         d="m 163.7409,1153.4263 3.54395,0 0,-3.5449 -3.54395,0 0,3.5449 z" />
      <path
         inkscape:connector-curvature="0"
         id="path112"
         style="fill:#f4f4f4;fill-opacity:1;fill-rule:nonzero;stroke:none"
         d="m 163.7409,1159.3688 3.54395,0 0,-3.5449 -3.54395,0 0,3.5449 z" />
      <path
         inkscape:connector-curvature="0"
         id="path114"
         style="fill:#f4f4f4;fill-opacity:1;fill-rule:nonzero;stroke:none"
         d="m 163.7409,1165.3113 3.54395,0 0,-3.5449 -3.54395,0 0,3.5449 z" />
      <path
         inkscape:connector-curvature="0"
         id="path126"
         style="fill:#f4f4f4;fill-opacity:1;fill-rule:nonzero;stroke:none"
         d="m 169.3709,1123.7138 3.54395,0 0,-3.5454 -3.54395,0 0,3.5454 z" />
      <path
         inkscape:connector-curvature="0"
         id="path128"
         style="fill:#f4f4f4;fill-opacity:1;fill-rule:nonzero;stroke:none"
         d="m 169.3709,1129.6563 3.54395,0 0,-3.5449 -3.54395,0 0,3.5449 z" />
      <path
         inkscape:connector-curvature="0"
         id="path130"
         style="fill:#f4f4f4;fill-opacity:1;fill-rule:nonzero;stroke:none"
         d="m 169.3709,1135.5988 3.54395,0 0,-3.5449 -3.54395,0 0,3.5449 z" />
      <path
         inkscape:connector-curvature="0"
         id="path132"
         style="fill:#f4f4f4;fill-opacity:1;fill-rule:nonzero;stroke:none"
         d="m 169.3709,1141.54 3.54395,0 0,-3.5449 -3.54395,0 0,3.5449 z" />
      <path
         inkscape:connector-curvature="0"
         id="path134"
         style="fill:#f4f4f4;fill-opacity:1;fill-rule:nonzero;stroke:none"
         d="m 169.3709,1147.4838 3.54395,0 0,-3.5449 -3.54395,0 0,3.5449 z" />
      <path
         inkscape:connector-curvature="0"
         id="path136"
         style="fill:#f4f4f4;fill-opacity:1;fill-rule:nonzero;stroke:none"
         d="m 169.3709,1153.4263 3.54395,0 0,-3.5449 -3.54395,0 0,3.5449 z" />
      <path
         inkscape:connector-curvature="0"
         id="path138"
         style="fill:#f4f4f4;fill-opacity:1;fill-rule:nonzero;stroke:none"
         d="m 169.3709,1159.3688 3.54395,0 0,-3.5449 -3.54395,0 0,3.5449 z" />
      <path
         inkscape:connector-curvature="0"
         id="path140"
         style="fill:#f4f4f4;fill-opacity:1;fill-rule:nonzero;stroke:none"
         d="m 169.3709,1165.3113 3.54395,0 0,-3.5449 -3.54395,0 0,3.5449 z" />
      <path
         inkscape:connector-curvature="0"
         id="path158"
         style="fill:#f4f4f4;fill-opacity:1;fill-rule:nonzero;stroke:none"
         d="m 174.99965,1123.7138 3.54493,0 0,-3.5454 -3.54493,0 0,3.5454 z" />
      <path
         inkscape:connector-curvature="0"
         id="path160"
         style="fill:#f4f4f4;fill-opacity:1;fill-rule:nonzero;stroke:none"
         d="m 174.99965,1129.6563 3.54493,0 0,-3.5449 -3.54493,0 0,3.5449 z" />
      <path
         inkscape:connector-curvature="0"
         id="path162"
         style="fill:#f4f4f4;fill-opacity:1;fill-rule:nonzero;stroke:none"
         d="m 174.99965,1135.5988 3.54493,0 0,-3.5449 -3.54493,0 0,3.5449 z" />
      <path
         inkscape:connector-curvature="0"
         id="path164"
         style="fill:#f4f4f4;fill-opacity:1;fill-rule:nonzero;stroke:none"
         d="m 174.99965,1141.54 3.54493,0 0,-3.5449 -3.54493,0 0,3.5449 z" />
      <path
         inkscape:connector-curvature="0"
         id="path166"
         style="fill:#f4f4f4;fill-opacity:1;fill-rule:nonzero;stroke:none"
         d="m 174.99965,1147.4838 3.54493,0 0,-3.5449 -3.54493,0 0,3.5449 z" />
      <path
         inkscape:connector-curvature="0"
         id="path168"
         style="fill:#f4f4f4;fill-opacity:1;fill-rule:nonzero;stroke:none"
         d="m 174.99965,1153.4263 3.54493,0 0,-3.5449 -3.54493,0 0,3.5449 z" />
      <path
         inkscape:connector-curvature="0"
         id="path170"
         style="fill:#f4f4f4;fill-opacity:1;fill-rule:nonzero;stroke:none"
         d="m 174.99965,1159.3688 3.54493,0 0,-3.5449 -3.54493,0 0,3.5449 z" />
      <path
         inkscape:connector-curvature="0"
         id="path172"
         style="fill:#f4f4f4;fill-opacity:1;fill-rule:nonzero;stroke:none"
         d="m 174.99965,1165.3113 3.54493,0 0,-3.5449 -3.54493,0 0,3.5449 z" />
      <path
         inkscape:connector-curvature="0"
         id="path194"
         style="fill:#f4f4f4;fill-opacity:1;fill-rule:nonzero;stroke:none"
         d="m 180.62965,1123.7138 3.54493,0 0,-3.5454 -3.54493,0 0,3.5454 z" />
      <path
         inkscape:connector-curvature="0"
         id="path196"
         style="fill:#f4f4f4;fill-opacity:1;fill-rule:nonzero;stroke:none"
         d="m 180.62965,1129.6563 3.54493,0 0,-3.5449 -3.54493,0 0,3.5449 z" />
      <path
         inkscape:connector-curvature="0"
         id="path198"
         style="fill:#f4f4f4;fill-opacity:1;fill-rule:nonzero;stroke:none"
         d="m 180.62965,1135.5988 3.54493,0 0,-3.5449 -3.54493,0 0,3.5449 z" />
      <path
         inkscape:connector-curvature="0"
         id="path200"
         style="fill:#f4f4f4;fill-opacity:1;fill-rule:nonzero;stroke:none"
         d="m 180.62965,1141.54 3.54493,0 0,-3.5449 -3.54493,0 0,3.5449 z" />
      <path
         inkscape:connector-curvature="0"
         id="path202"
         style="fill:#f4f4f4;fill-opacity:1;fill-rule:nonzero;stroke:none"
         d="m 180.62965,1147.4838 3.54493,0 0,-3.5449 -3.54493,0 0,3.5449 z" />
      <path
         inkscape:connector-curvature="0"
         id="path204"
         style="fill:#f4f4f4;fill-opacity:1;fill-rule:nonzero;stroke:none"
         d="m 180.62965,1153.4263 3.54493,0 0,-3.5449 -3.54493,0 0,3.5449 z" />
      <path
         inkscape:connector-curvature="0"
         id="path206"
         style="fill:#f4f4f4;fill-opacity:1;fill-rule:nonzero;stroke:none"
         d="m 180.62965,1159.3688 3.54493,0 0,-3.5449 -3.54493,0 0,3.5449 z" />
      <path
         inkscape:connector-curvature="0"
         id="path208"
         style="fill:#f4f4f4;fill-opacity:1;fill-rule:nonzero;stroke:none"
         d="m 180.62965,1165.3113 3.54493,0 0,-3.5449 -3.54493,0 0,3.5449 z" />
      <path
         inkscape:connector-curvature="0"
         id="path222"
         style="fill:#f4f4f4;fill-opacity:1;fill-rule:nonzero;stroke:none"
         d="m 186.25965,1123.7138 3.54541,0 0,-3.5454 -3.54541,0 0,3.5454 z" />
      <path
         inkscape:connector-curvature="0"
         id="path224"
         style="fill:#f4f4f4;fill-opacity:1;fill-rule:nonzero;stroke:none"
         d="m 186.25965,1129.6563 3.54541,0 0,-3.5449 -3.54541,0 0,3.5449 z" />
      <path
         inkscape:connector-curvature="0"
         id="path226"
         style="fill:#f4f4f4;fill-opacity:1;fill-rule:nonzero;stroke:none"
         d="m 186.25965,1135.5988 3.54541,0 0,-3.5449 -3.54541,0 0,3.5449 z" />
      <path
         inkscape:connector-curvature="0"
         id="path228"
         style="fill:#f4f4f4;fill-opacity:1;fill-rule:nonzero;stroke:none"
         d="m 186.25965,1141.54 3.54541,0 0,-3.5449 -3.54541,0 0,3.5449 z" />
      <path
         inkscape:connector-curvature="0"
         id="path230"
         style="fill:#f4f4f4;fill-opacity:1;fill-rule:nonzero;stroke:none"
         d="m 186.25965,1147.4838 3.54541,0 0,-3.5449 -3.54541,0 0,3.5449 z" />
      <path
         inkscape:connector-curvature="0"
         id="path232"
         style="fill:#f4f4f4;fill-opacity:1;fill-rule:nonzero;stroke:none"
         d="m 186.25965,1153.4263 3.54541,0 0,-3.5449 -3.54541,0 0,3.5449 z" />
      <path
         inkscape:connector-curvature="0"
         id="path234"
         style="fill:#f4f4f4;fill-opacity:1;fill-rule:nonzero;stroke:none"
         d="m 186.25965,1159.3688 3.54541,0 0,-3.5449 -3.54541,0 0,3.5449 z" />
      <path
         inkscape:connector-curvature="0"
         id="path236"
         style="fill:#f4f4f4;fill-opacity:1;fill-rule:nonzero;stroke:none"
         d="m 186.25965,1165.3113 3.54541,0 0,-3.5449 -3.54541,0 0,3.5449 z" />
      <path
         inkscape:connector-curvature="0"
         id="path986"
         style="fill:#f4f4f4;fill-opacity:1;fill-rule:nonzero;stroke:none"
         d="m 115.57465,1126.1113 3.54395,0 0,-3.544 -3.54395,0 0,3.544 z" />
      <path
         inkscape:connector-curvature="0"
         id="path988"
         style="fill:#f4f4f4;fill-opacity:1;fill-rule:nonzero;stroke:none"
         d="m 115.57465,1132.0538 3.54395,0 0,-3.544 -3.54395,0 0,3.544 z" />
      <path
         inkscape:connector-curvature="0"
         id="path990"
         style="fill:#f4f4f4;fill-opacity:1;fill-rule:nonzero;stroke:none"
         d="m 115.57465,1137.995 3.54395,0 0,-3.5429 -3.54395,0 0,3.5429 z" />
      <path
         inkscape:connector-curvature="0"
         id="path992"
         style="fill:#f4f4f4;fill-opacity:1;fill-rule:nonzero;stroke:none"
         d="m 115.57465,1143.9388 3.54395,0 0,-3.5449 -3.54395,0 0,3.5449 z" />
      <path
         inkscape:connector-curvature="0"
         id="path994"
         style="fill:#f4f4f4;fill-opacity:1;fill-rule:nonzero;stroke:none"
         d="m 115.57465,1149.8813 3.54395,0 0,-3.5454 -3.54395,0 0,3.5454 z" />
      <path
         inkscape:connector-curvature="0"
         id="path996"
         style="fill:#f4f4f4;fill-opacity:1;fill-rule:nonzero;stroke:none"
         d="m 115.57465,1155.8238 3.54395,0 0,-3.5449 -3.54395,0 0,3.5449 z" />
      <path
         inkscape:connector-curvature="0"
         id="path1030"
         style="fill:#f4f4f4;fill-opacity:1;fill-rule:nonzero;stroke:none"
         d="m 121.20465,1126.1113 3.54346,0 0,-3.544 -3.54346,0 0,3.544 z" />
      <path
         inkscape:connector-curvature="0"
         id="path1032"
         style="fill:#f4f4f4;fill-opacity:1;fill-rule:nonzero;stroke:none"
         d="m 121.20465,1132.0538 3.54346,0 0,-3.544 -3.54346,0 0,3.544 z" />
      <path
         inkscape:connector-curvature="0"
         id="path1034"
         style="fill:#f4f4f4;fill-opacity:1;fill-rule:nonzero;stroke:none"
         d="m 121.20465,1137.995 3.54346,0 0,-3.5429 -3.54346,0 0,3.5429 z" />
      <path
         inkscape:connector-curvature="0"
         id="path1036"
         style="fill:#f4f4f4;fill-opacity:1;fill-rule:nonzero;stroke:none"
         d="m 121.20465,1143.9388 3.54346,0 0,-3.5449 -3.54346,0 0,3.5449 z" />
      <path
         inkscape:connector-curvature="0"
         id="path1038"
         style="fill:#f4f4f4;fill-opacity:1;fill-rule:nonzero;stroke:none"
         d="m 121.20465,1149.8813 3.54346,0 0,-3.5454 -3.54346,0 0,3.5454 z" />
      <path
         inkscape:connector-curvature="0"
         id="path1040"
         style="fill:#f4f4f4;fill-opacity:1;fill-rule:nonzero;stroke:none"
         d="m 121.20465,1155.8238 3.54346,0 0,-3.5449 -3.54346,0 0,3.5449 z" />
      <path
         inkscape:connector-curvature="0"
         id="path1066"
         style="fill:#f4f4f4;fill-opacity:1;fill-rule:nonzero;stroke:none"
         d="m 126.83465,1126.1113 3.54395,0 0,-3.544 -3.54395,0 0,3.544 z" />
      <path
         inkscape:connector-curvature="0"
         id="path1068"
         style="fill:#f4f4f4;fill-opacity:1;fill-rule:nonzero;stroke:none"
         d="m 126.83465,1132.0538 3.54395,0 0,-3.544 -3.54395,0 0,3.544 z" />
      <path
         inkscape:connector-curvature="0"
         id="path1070"
         style="fill:#f4f4f4;fill-opacity:1;fill-rule:nonzero;stroke:none"
         d="m 126.83465,1137.995 3.54395,0 0,-3.5429 -3.54395,0 0,3.5429 z" />
      <path
         inkscape:connector-curvature="0"
         id="path1072"
         style="fill:#f4f4f4;fill-opacity:1;fill-rule:nonzero;stroke:none"
         d="m 126.83465,1143.9388 3.54395,0 0,-3.5449 -3.54395,0 0,3.5449 z" />
      <path
         inkscape:connector-curvature="0"
         id="path1074"
         style="fill:#f4f4f4;fill-opacity:1;fill-rule:nonzero;stroke:none"
         d="m 126.83465,1149.8813 3.54395,0 0,-3.5454 -3.54395,0 0,3.5454 z" />
      <path
         inkscape:connector-curvature="0"
         id="path1076"
         style="fill:#f4f4f4;fill-opacity:1;fill-rule:nonzero;stroke:none"
         d="m 126.83465,1155.8238 3.54395,0 0,-3.5449 -3.54395,0 0,3.5449 z" />
      <path
         inkscape:connector-curvature="0"
         id="path1568"
         style="fill:#1d2a30;fill-opacity:1;fill-rule:nonzero;stroke:none"
         d="m 211.5409,1116.5075 c 0,31.145 -25.2475,56.3925 -56.3925,56.3925 -31.145,0 -56.392499,-25.2475 -56.392499,-56.3925 0,-31.145 25.247499,-56.3937 56.392499,-56.3937 31.145,0 56.3925,25.2487 56.3925,56.3937" />
      <path
         inkscape:connector-curvature="0"
         id="path1570"
         style="fill:#ffffff;fill-opacity:1;fill-rule:nonzero;stroke:none"
         d="m 123.1259,1111.9038 c -0.74625,0 -1.4925,-0.285 -2.06125,-0.855 -1.13875,-1.1375 -1.13875,-2.9838 0,-4.1213 18.79375,-18.7962 49.37375,-18.795 68.1675,-10e-4 1.13875,1.1388 1.13875,2.9838 0,4.1225 -1.1375,1.1388 -2.98375,1.1388 -4.1225,0 -16.52125,-16.52 -43.40125,-16.5212 -59.9225,0 -0.56875,0.57 -1.315,0.855 -2.06125,0.855" />
      <path
         inkscape:connector-curvature="0"
         id="path1572"
         style="fill:#ffffff;fill-opacity:1;fill-rule:nonzero;stroke:none"
         d="m 133.0209,1121.7975 c -0.74625,0 -1.4925,-0.2837 -2.06125,-0.8525 -1.13875,-1.1387 -1.13875,-2.985 0,-4.1225 6.45125,-6.4525 15.04125,-10.0062 24.18875,-10.0062 9.14625,0 17.7375,3.5525 24.18875,10.005 1.13875,1.1375 1.13875,2.985 0,4.1225 -1.1375,1.1387 -2.985,1.1387 -4.1225,0 -5.35,-5.35 -12.47625,-8.2963 -20.06625,-8.2963 -7.59,0 -14.71625,2.9463 -20.06625,8.2975 -0.56875,0.5688 -1.315,0.8525 -2.06125,0.8525" />
      <path
         inkscape:connector-curvature="0"
         id="path1574"
         style="fill:#ffffff;fill-opacity:1;fill-rule:nonzero;stroke:none"
         d="m 142.9159,1131.6938 c -0.74625,0 -1.4925,-0.285 -2.06125,-0.855 -1.13875,-1.1375 -1.13875,-2.985 0,-4.1225 3.8125,-3.8138 8.88875,-5.9125 14.29375,-5.9125 5.405,0 10.48125,2.0987 14.295,5.9125 1.1375,1.1375 1.1375,2.985 -0.001,4.1237 -1.1375,1.1375 -2.98375,1.1375 -4.1225,0 -2.7113,-2.7113 -6.3238,-4.2038 -10.1713,-4.2038 -3.8475,0 -7.46,1.4925 -10.17125,4.2038 -0.56875,0.57 -1.315,0.855 -2.06125,0.855" />
      <path
         inkscape:connector-curvature="0"
         id="path1576"
         style="fill:#ffffff;fill-opacity:1;fill-rule:nonzero;stroke:none"
         d="m 158.09965,1138.0588 c 1.63,1.63 1.63,4.2725 0,5.9025 -1.63,1.6312 -4.2725,1.6312 -5.9025,0 -1.63,-1.63 -1.63,-4.2725 0,-5.9025 1.63,-1.63 4.2725,-1.63 5.9025,0" />
      <path
         inkscape:connector-curvature="0"
         id="path1658"
         style="fill:#ffffff;fill-opacity:1;fill-rule:nonzero;stroke:none"
         d="m 173.3334,1102.7363 c -3.8525,-1.8263 -7.925,-3.0388 -12.07,-3.6388 l 4.9825,-4.9825 c 3.93875,0.925 7.785,2.3513 11.43125,4.2763 l -4.34375,4.345" />
      <path
         inkscape:connector-curvature="0"
         id="path1660"
         style="fill:#ffffff;fill-opacity:1;fill-rule:nonzero;stroke:none"
         d="m 146.3284,1114.0325 7.17875,-7.1775 c 0.545,-0.026 1.09125,-0.039 1.64125,-0.039 4.1525,0 8.1925,0.7325 11.9675,2.1363 l -4.64125,4.6412 c -2.36,-0.625 -4.8175,-0.9462 -7.32625,-0.9462 -3.0425,0 -6.01125,0.4737 -8.82,1.385" />
      <path
         inkscape:connector-curvature="0"
         id="path1662"
         style="fill:#ffffff;fill-opacity:1;fill-rule:nonzero;stroke:none"
         d="m 142.9159,1131.6938 c -0.74625,0 -1.4925,-0.285 -2.06125,-0.855 -1.13875,-1.1375 -1.13875,-2.985 0,-4.1225 3.8125,-3.8138 8.88875,-5.9125 14.29375,-5.9125 0.0387,0 0.0775,0 0.11625,0 l -8.55625,8.555 c -0.61,0.4437 -1.18875,0.9375 -1.73125,1.48 -0.56875,0.57 -1.315,0.855 -2.06125,0.855" />
    </g>
  </g>
</svg>
