<?xml version="1.0" encoding="UTF-8" standalone="no"?>
<!-- Created with Inkscape (http://www.inkscape.org/) -->

<svg
   xmlns:dc="http://purl.org/dc/elements/1.1/"
   xmlns:cc="http://creativecommons.org/ns#"
   xmlns:rdf="http://www.w3.org/1999/02/22-rdf-syntax-ns#"
   xmlns:svg="http://www.w3.org/2000/svg"
   xmlns="http://www.w3.org/2000/svg"
   xmlns:sodipodi="http://sodipodi.sourceforge.net/DTD/sodipodi-0.dtd"
   xmlns:inkscape="http://www.inkscape.org/namespaces/inkscape"
   width="18mm"
   height="18mm"
   viewBox="0 0 63.779526 63.779526"
   id="svg2"
   version="1.1"
   inkscape:version="0.91 r13725"
   sodipodi:docname="doctor.svg">
  <defs
     id="defs4" />
  <sodipodi:namedview
     id="base"
     pagecolor="#ffffff"
     bordercolor="#666666"
     borderopacity="1.0"
     inkscape:pageopacity="0.0"
     inkscape:pageshadow="2"
     inkscape:zoom="7.9195959"
     inkscape:cx="38.166683"
     inkscape:cy="49.81398"
     inkscape:document-units="px"
     inkscape:current-layer="layer1"
     showgrid="false"
     inkscape:window-width="2495"
     inkscape:window-height="1416"
     inkscape:window-x="65"
     inkscape:window-y="24"
     inkscape:window-maximized="1" />
  <metadata
     id="metadata7">
    <rdf:RDF>
      <cc:Work
         rdf:about="">
        <dc:format>image/svg+xml</dc:format>
        <dc:type
           rdf:resource="http://purl.org/dc/dcmitype/StillImage" />
        <dc:title></dc:title>
      </cc:Work>
    </rdf:RDF>
  </metadata>
  <g
     inkscape:label="Layer 1"
     inkscape:groupmode="layer"
     id="layer1"
     transform="translate(0,-988.58267)">
    <g
       id="g4836"
       transform="matrix(0.12928683,0,0,-0.11889153,-50.111816,1473.3684)">
      <path
         inkscape:connector-curvature="0"
         id="path662"
         style="fill:#496ea0;fill-opacity:1;fill-rule:nonzero;stroke:none"
         d="m 603.242,3646.48 31.426,31.45 31.426,-31.45 95.664,65.1 33.586,-5.27 1.992,-0.46 c 11.875,-2.9 24.48,-14.66 27.586,-25.85 l 41.23,-127.73 -464.492,0 41.387,127.95 c 2.961,10.98 15.527,22.71 27.383,25.62 l 36.941,5.88 95.871,-65.24 z m -55.683,72.09 78.879,-35.42 -24.36,-24.36 -78.953,53.72 24.434,6.06 z m 198.664,-6.06 -78.965,-53.72 -24.348,24.36 78.867,35.42 24.446,-6.06 z m -239.321,159.15 -4.968,-12.89 c -0.95,-2.45 -3.211,-4.04 -6.004,-4.04 -3.457,0 -6.274,2.82 -6.274,6.28 l 0,74.46 c 0,3.46 2.817,6.26 6.489,6.26 1.628,0 3.179,-0.63 4.363,-1.79 l 6.101,-6 2.5,11.41 c 0.762,3.04 1.621,5.97 2.493,8.9 l 12.968,19.28 c 9.325,13.86 25.989,20.87 42.422,17.84 l 20.149,-3.71 c 12.144,-2.23 24.48,-3.37 36.824,-3.37 l 10.605,0 10.606,0 c 12.351,0 24.679,1.14 36.828,3.37 l 20.144,3.71 c 16.438,3.03 33.106,-3.98 42.422,-17.84 l 10.371,-15.4 c 1.629,-5.15 3.145,-10.4 4.407,-15.86 l 1.914,-8.23 6.043,5.9 c 1.191,1.16 2.734,1.79 4.582,1.79 3.457,0 6.265,-2.8 6.265,-6.26 l 0,-74.46 c 0,-3.46 -2.808,-6.28 -6.492,-6.28 -2.566,0 -4.836,1.59 -5.793,4.04 l -4.969,12.89 -4.011,-13.22 c -12.805,-42.11 -39.836,-76.03 -74.172,-93.06 l -2.246,-1.12 c -6.055,-2.87 -12.403,-5.22 -18.914,-6.99 -8.887,-2.44 -17.981,-3.84 -27.66,-4.21 -14.754,0.49 -28.961,3.61 -42.301,9.29 -1.953,0.83 -3.918,1.67 -6.496,3.03 -34.336,17.03 -61.368,50.95 -74.168,93.06 l -4.028,13.22 z m 68.672,-121.26 1.66,8.52 c 1.067,-0.57 2.082,-1.26 3.164,-1.79 l 1.196,-0.7 c 1.98,-1 4.121,-1.92 6.344,-2.87 14.406,-6.13 29.816,-9.5 45.812,-10.01 l 0.996,0.04 c 9.817,0.34 19.688,1.86 29.317,4.49 7.199,1.97 14.238,4.59 20.925,7.78 l 3.711,0.06 0,1.83 1.887,1.1 1.648,-8.46 c 1.907,-9.69 9.145,-19.7 18.528,-26.33 l -76.094,-34.18 -77.051,34.61 c 9.16,6.6 16.16,16.38 17.957,25.91 z m 258.457,-67.67 c -3.98,14.4 -19.109,28.61 -34.488,32.37 l -67.617,10.76 -8.625,2.14 -1.406,0.51 c -9.993,4.66 -18.536,14.63 -20.325,23.72 l -2.293,11.71 c 28.621,18.27 51.387,47.83 64.063,83.68 2.473,-1.54 5.398,-2.4 8.547,-2.4 8.699,0 15.789,7.08 15.789,15.79 l 0,74.46 c 0,8.71 -7.09,15.78 -16.016,15.78 -1.301,0 -2.566,-0.25 -3.808,-0.56 0.761,15.25 1.003,44.36 -5.735,70.15 -6.582,25.14 -39.383,52.09 -56.988,54.16 -17.524,2.05 -70.559,-0.81 -70.559,-0.81 0,0 -53.039,2.86 -70.547,0.81 -17.617,-2.07 -50.418,-29.02 -56.992,-54.16 -6.472,-24.77 -6.504,-52.6 -5.82,-68.28 l -0.574,-1.97 c -1.496,0.43 -3.071,0.66 -4.707,0.66 -8.711,0 -15.793,-7.07 -15.793,-15.78 l 0,-74.46 c 0,-8.71 7.082,-15.79 16.008,-15.79 3.035,0 5.898,0.85 8.328,2.38 12.722,-35.98 35.554,-65.66 64.035,-83.74 l -2.27,-11.67 c -1.718,-9.03 -10.133,-18.89 -20.066,-23.52 l -0.266,-0.13 -0.047,-0.02 c -1.367,-0.69 -2.91,-1.22 -4.421,-1.66 l -1.106,-0.28 -70.019,-11 -2.09,-0.48 c -15.125,-3.71 -30.547,-18.24 -34.297,-32.17 l -45.34,-140.18 490.644,0 -45.199,139.98" />
      <path
         inkscape:connector-curvature="0"
         id="path664"
         style="fill:#496ea0;fill-opacity:1;fill-rule:nonzero;stroke:none"
         d="m 717.078,3576.16 16.606,0 0,20.01 20.007,0 0,16.53 -20.007,0 0,20.01 -7.715,0 -8.891,0 0,-20.01 -19.937,0 0,-16.53 19.937,0 0,-20.01" />
      <path
         inkscape:connector-curvature="0"
         id="path666"
         style="fill:#f14a3d;fill-opacity:1;fill-rule:nonzero;stroke:none"
         d="m 637.336,3801.38 c 12.996,0 25.984,4.07 36.824,12.21 1.887,1.41 2.258,4.08 0.852,5.96 -1.407,1.87 -4.094,2.25 -5.957,0.84 -18.672,-14.02 -44.77,-14.02 -63.442,0 -1.875,1.41 -4.539,1.03 -5.957,-0.84 -1.402,-1.88 -1.035,-4.55 0.852,-5.96 10.84,-8.14 23.828,-12.21 36.828,-12.21" />
      <path
         inkscape:connector-curvature="0"
         id="path668"
         style="fill:#496ea0;fill-opacity:1;fill-rule:nonzero;stroke:none"
         d="m 568.398,3920.85 c -7.246,0 -13.144,-5.9 -13.144,-13.16 0,-7.25 5.898,-13.15 13.144,-13.15 7.266,0 13.165,5.9 13.165,13.15 0,7.26 -5.899,13.16 -13.165,13.16" />
      <path
         inkscape:connector-curvature="0"
         id="path670"
         style="fill:#496ea0;fill-opacity:1;fill-rule:nonzero;stroke:none"
         d="m 700.742,3894.54 c 7.254,0 13.153,5.9 13.153,13.15 0,7.26 -5.899,13.16 -13.153,13.16 -7.246,0 -13.152,-5.9 -13.152,-13.16 0,-7.25 5.906,-13.15 13.152,-13.15" />
    </g>
  </g>
</svg>
