<svg id="Layer_1" data-name="Layer 1" xmlns="http://www.w3.org/2000/svg" viewBox="0 0 766.62 413.23"><defs><style>.cls-1{fill:#061d35;}.cls-2{fill:#061d35;}</style></defs><polygon class="cls-1" points="13.75 13.32 30.87 13.32 30.87 72.65 110.57 72.65 110.57 13.32 127.99 13.32 127.99 146.16 110.87 146.16 110.87 79.74 30.58 79.74 30.58 146.16 13.75 146.16 13.75 13.32"/><path class="cls-1" d="M222.45,13.32h-9.74l-57,132.84h9.15l16.23-39h66.13l18.89,39H283Zm-37.19,85,27.45-64.06,30.11,64.06Z"/><path class="cls-1" d="M691.33,13.32h-9.74l-57,132.84h9.15l16.24-39h66.12l18.89,39h16.83Zm-37.19,85,27.45-64.06L711.7,98.34Z"/><path class="cls-1" d="M418.84,140.24c-2.09.39-12,1.45-21-10.9,0,0-18.63-26.94-27.38-38.56-1.84-2.45-3.13-4.48-6.43-6.48-.8-.49-.91-1.79.62-1.66a17.26,17.26,0,0,0,2.59.1c6-.38,25.13-3.54,29.94-28,0,0,6.93-33.55-30.68-40.4a13.42,13.42,0,0,0-2.19-.21l-52.73-.83V146.16h17.65v-59s19.85-2.21,27.13,7.72l23.46,34.88a49.61,49.61,0,0,0,9.44,10.54c1,.81,2,1.62,3.09,2.4a27.92,27.92,0,0,0,15.9,5.22h.64c1.38,0,6.75-.26,7.31-.45.11,0,2.85-.19,3-3.9v-3A.33.33,0,0,0,418.84,140.24ZM352.21,79.07h-23V21.68h21a33.27,33.27,0,0,1,20.69,7c7.19,5.71,12.38,19.18,7.4,32.68a25,25,0,0,1-10.7,13.42A28.58,28.58,0,0,1,352.21,79.07Z"/><path class="cls-1" d="M514.16,17.77a44.94,44.94,0,0,0-19.72-4.45c-13.84,0-45.47,0-45.79,0v133h16.78V90.62c13.48,3.85,34.41,2.2,34.41,2.2,31.72-6,34.91-29.89,35.23-34.8,0-.75.13-1.5.21-2.25C537.73,33.89,524.87,23,514.16,17.77Zm2.4,45.77S509.71,94.06,465,84.67V21.76h25a26.17,26.17,0,0,1,9.5,1.74C508.24,26.9,522.32,36.64,516.56,63.54Z"/><rect class="cls-1" x="572.04" y="13.32" width="16.5" height="133.02"/><path class="cls-2" d="M384.37,265.27a1.48,1.48,0,0,1-2,0c-4.31-3.71-21.15-18.37-23.17-22.05,0,0-1.91-2.86,0-7.64,0,0,4.1-8.2,6.77-13a10.25,10.25,0,0,0,1.58-4.86v-2a27,27,0,0,0-2.11-9.87l-.92-2.35s-1.37-5.32,8.45-6.41c0,0,15.59-2.88,29.69,3.93a1,1,0,0,1,.41,1.29h0a.94.94,0,0,1-.86.5,24.67,24.67,0,0,0-9.27,1.37c-4.33,1.63-7.42,4.57-7.24,10.08,0,0,0,8,1.91,11.46a41.68,41.68,0,0,0,16.51,17,2.22,2.22,0,0,1,1.06,2.45v0a4,4,0,0,1-1.17,2Z"/><path class="cls-2" d="M456.83,230.2c31.89-11.31,35-31.89,35-31.89L434,215.92a2.11,2.11,0,0,0-1.38,1.38c-10.7,35-40.57,55.43-47.68,59.89a2.87,2.87,0,0,1-3.06,0c-7.1-4.46-37-24.93-47.68-59.88a2.09,2.09,0,0,0-1.38-1.39L275,198.31s3.11,20.58,35,31.89c1.22.44,5.12,1.34,5.48,5.07a4.67,4.67,0,0,1-.77,3.08c-1.27,1.9-3.69,3.26-7.82,1.71-1.57-.59-15.28-8-15.28-8S298,251,329.17,258.21c0,0,5.35,1.15,5.35,5.76,0,0,.36,3.62-3.89,4.76a9.16,9.16,0,0,1-3.87.09c-2.77-.44-8.85-1.68-9.35-2.06,0,0,3.34,13,30.26,20.42a5.91,5.91,0,0,1,3.69,2.82c.29.55,3.53,11.57,5.81,18.32a35.49,35.49,0,0,0,5.39,9.64c4,5.53,12.31,13.82,20.83,18.41,8.52-4.59,16.82-12.88,20.83-18.41a35.53,35.53,0,0,0,5.4-9.64c2.27-6.75,5.51-17.77,5.8-18.32a5.93,5.93,0,0,1,3.7-2.82c26.91-7.43,30.26-20.42,30.26-20.42-.51.38-6.58,1.62-9.35,2.06a9.2,9.2,0,0,1-3.88-.09c-4.25-1.14-3.89-4.76-3.89-4.76,0-4.61,5.35-5.76,5.35-5.76C468.79,251,475.21,232,475.21,232s-13.7,7.43-15.28,8c-4.13,1.55-6.55.19-7.82-1.71a4.74,4.74,0,0,1-.77-3.08C451.71,231.54,455.6,230.64,456.83,230.2Z"/><path class="cls-2" d="M502.63,194.88l67.59-21s-14.88,29.48-74.82,40.19C495.4,214.07,502.49,204.47,502.63,194.88Z"/><path class="cls-2" d="M488.51,225.72s29.79-5.1,52.62-16.37c0,0-17.15,27.34-64.48,38C476.65,247.37,486.55,238,488.51,225.72Z"/><path class="cls-2" d="M460,263.29s19.77-5,35.92-12.68c0,0-5.12,14.41-36.94,16.22A16.4,16.4,0,0,0,460,263.29Z"/><path class="cls-2" d="M263,194.94l-67.59-21s14.88,29.48,74.82,40.19C270.2,214.13,263.11,204.54,263,194.94Z"/><path class="cls-2" d="M277.09,225.78s-29.79-5.1-52.62-16.37c0,0,17.15,27.35,64.48,38C289,247.44,279.05,238,277.09,225.78Z"/><path class="cls-2" d="M305.58,263.35s-19.77-5-35.92-12.68c0,0,5.12,14.42,36.93,16.23A17.15,17.15,0,0,1,305.58,263.35Z"/><path class="cls-2" d="M352.59,320.08l2.6,3.62-22.85,43.4-7.82-10.42S335.66,335,352.59,320.08Z"/><path class="cls-2" d="M361.85,331.51l7.09,6.51L357.8,389.23l-17.94-14.47S355.19,341.63,361.85,331.51Z"/><path class="cls-2" d="M404.67,330.78l-7.09,6.51,11.14,51.22L426.66,374S411.33,340.91,404.67,330.78Z"/><path class="cls-2" d="M377.33,344.38s5.35,8.39,11.86,0l11.29,49.34-16.3,8.14a1.76,1.76,0,0,1-1.58,0l-16.27-8.41Z"/><polygon class="cls-2" points="412.12 323.84 413.93 321.81 441.71 356.97 434.91 366.08 412.12 323.84"/><rect class="cls-1" x="267.83" y="170.48" width="229.94" height="2.76"/></svg>